<svg width="11" height="10" viewBox="0 0 11 10" fill="none" xmlns="http://www.w3.org/2000/svg">
<path fill-rule="evenodd" clip-rule="evenodd" d="M6.05776 2.8373C6.05776 2.91781 6.0733 2.99754 6.10349 3.07192C6.13369 3.14631 6.17795 3.21389 6.23374 3.27083C6.28954 3.32776 6.35578 3.37292 6.42868 3.40373C6.47054 3.42142 6.51413 3.43419 6.55861 3.44185L7.25299 2.74746C7.24579 2.69785 7.23263 2.64922 7.21374 2.60267C7.18354 2.52829 7.13928 2.4607 7.08349 2.40377C7.02769 2.34683 6.96145 2.30167 6.88855 2.27086C6.81565 2.24005 6.73752 2.22419 6.65862 2.22419C6.57971 2.22419 6.50158 2.24005 6.42868 2.27086C6.35578 2.30167 6.28954 2.34683 6.23374 2.40377C6.17795 2.4607 6.13369 2.52829 6.10349 2.60267C6.0733 2.67706 6.05776 2.75678 6.05776 2.8373ZM7.60998 1.6315C7.75253 1.74764 7.8844 1.86943 8.00621 1.99425L8.44228 1.55817C8.30666 1.4188 8.15968 1.28225 8.00055 1.15123C5.7473 -0.698312 3.1736 -0.0852082 1.63137 1.34541C0.0791415 2.77599 -0.742043 5.36127 0.900327 7.91589L0.902144 7.91849C0.929701 7.95797 1.119 8.22917 1.43811 8.56235L1.86994 8.13051C1.63517 7.88572 1.47946 7.68081 1.42378 7.60753C1.40955 7.5888 1.40186 7.57867 1.40104 7.57867C-0.141163 5.17733 0.780155 2.95992 2.03194 1.795C3.39391 0.538136 5.64716 -0.00343857 7.60998 1.6315ZM4.05487 2.32637C4.05487 2.40688 4.07041 2.4866 4.10061 2.56099C4.1308 2.63538 4.17506 2.70296 4.23086 2.7599C4.28665 2.81683 4.35289 2.86199 4.42579 2.8928C4.49869 2.92361 4.57682 2.93947 4.65573 2.93947C4.73464 2.93947 4.81277 2.92361 4.88567 2.8928C4.95857 2.86199 5.02481 2.81683 5.0806 2.7599C5.1364 2.70296 5.18065 2.63538 5.21085 2.56099C5.24105 2.4866 5.25659 2.40688 5.25659 2.32637C5.25659 2.24585 5.24105 2.16613 5.21085 2.09174C5.18065 2.01736 5.1364 1.94977 5.0806 1.89284C5.02481 1.8359 4.95857 1.79074 4.88567 1.75993C4.81277 1.72912 4.73464 1.71326 4.65573 1.71326C4.57682 1.71326 4.49869 1.72912 4.42579 1.75993C4.35289 1.79074 4.28665 1.8359 4.23086 1.89284C4.17506 1.94977 4.1308 2.01736 4.10061 2.09174C4.07041 2.16613 4.05487 2.24585 4.05487 2.32637ZM2.25227 3.3482C2.25227 3.51081 2.31558 3.66675 2.42826 3.78173C2.54094 3.89671 2.69377 3.96131 2.85313 3.96131C3.01249 3.96131 3.16532 3.89671 3.278 3.78173C3.39068 3.66675 3.45399 3.51081 3.45399 3.3482C3.45399 3.1856 3.39068 3.02965 3.278 2.91467C3.16532 2.7997 3.01249 2.7351 2.85313 2.7351C2.69377 2.7351 2.54094 2.7997 2.42826 2.91467C2.31558 3.02965 2.25227 3.1856 2.25227 3.3482ZM1.55127 5.18754C1.55127 5.26805 1.56681 5.34778 1.59701 5.42216C1.6272 5.49655 1.67146 5.56414 1.72726 5.62107C1.78305 5.678 1.84929 5.72316 1.92219 5.75397C1.99509 5.78478 2.07322 5.80064 2.15213 5.80064C2.23103 5.80064 2.30917 5.78478 2.38207 5.75397C2.45497 5.72316 2.5212 5.678 2.577 5.62107C2.63279 5.56414 2.67705 5.49655 2.70725 5.42216C2.73745 5.34778 2.75299 5.26805 2.75299 5.18754C2.75299 5.10702 2.73745 5.0273 2.70725 4.95291C2.67705 4.87853 2.63279 4.81094 2.577 4.75401C2.5212 4.69708 2.45497 4.65192 2.38207 4.6211C2.30917 4.59029 2.23103 4.57443 2.15213 4.57443C2.07322 4.57443 1.99509 4.59029 1.92219 4.6211C1.84929 4.65192 1.78305 4.69708 1.72726 4.75401C1.67146 4.81094 1.6272 4.87853 1.59701 4.95291C1.56681 5.0273 1.55127 5.10702 1.55127 5.18754ZM7.06056 4.47237C7.06056 4.63497 7.12386 4.79092 7.23655 4.9059C7.34923 5.02088 7.50206 5.08547 7.66142 5.08547C7.82078 5.08547 7.97361 5.02088 8.08629 4.9059C8.19897 4.79092 8.26228 4.63497 8.26228 4.47237C8.26228 4.30976 8.19897 4.15382 8.08629 4.03884C7.97361 3.92386 7.82078 3.85926 7.66142 3.85926C7.50206 3.85926 7.34923 3.92386 7.23655 4.03884C7.12386 4.15382 7.06056 4.30976 7.06056 4.47237ZM6.55998 3.44198L7.25436 2.74759C7.25867 2.77727 7.26085 2.80729 7.26085 2.83742C7.26085 2.91794 7.2453 2.99766 7.21511 3.07205C7.18491 3.14643 7.14065 3.21402 7.08486 3.27095C7.02906 3.32789 6.96282 3.37305 6.88993 3.40386C6.81703 3.43467 6.73889 3.45053 6.65999 3.45053C6.6264 3.45053 6.59294 3.44765 6.55998 3.44198ZM4.54694 10.0006C4.33664 10.0006 4.11632 9.98015 3.87597 9.94948L3.81589 9.93926C2.78137 9.77782 1.94654 9.0919 1.43948 8.56248L1.87131 8.13064C2.31463 8.59286 3.03988 9.19728 3.90602 9.32617L3.90603 9.32616L3.96611 9.33638C4.9375 9.48965 5.52835 9.2955 5.76869 8.74371C5.76869 8.74278 5.76911 8.74083 5.76976 8.73775C5.77632 8.70701 5.80692 8.56344 5.68858 8.19191C5.5584 7.82404 5.65854 7.34377 5.91892 7.01678C6.1893 6.66935 6.58989 6.51607 7.06055 6.56717L7.0906 6.57739L7.10033 6.57916C7.21831 6.60175 8.37313 6.82291 8.98333 6.21973C9.37389 5.83144 9.49406 5.15702 9.32382 4.21692L9.32333 4.21531C9.28535 4.0893 8.94274 2.95261 8.00758 1.99437L8.44365 1.5583C9.52709 2.6718 9.88486 3.96606 9.91348 4.0696L9.91466 4.07385V4.09429C10.125 5.25919 9.95472 6.11755 9.40393 6.66935C8.56273 7.49704 7.17072 7.23137 6.98044 7.19049C6.72007 7.15984 6.52979 7.24158 6.38959 7.4153C6.23937 7.60945 6.20933 7.86491 6.2594 8.01819C6.3996 8.44736 6.41963 8.77435 6.31949 9.0196C6.02907 9.66337 5.43823 10.0006 4.54694 10.0006Z" fill="#C4C6CA"/>
</svg>
